<svg xmlns="http://www.w3.org/2000/svg" viewBox="0 0 85.12 63.23"><defs><style>.cls-1{fill:#31ba78;}.cls-1,.cls-2{stroke:#31ba78;}.cls-1,.cls-2,.cls-3{stroke-linecap:round;stroke-linejoin:round;stroke-width:2px;}.cls-2,.cls-3{fill:none;}.cls-3{stroke:#ff8e77;}</style></defs><g id="Layer_2" data-name="Layer 2"><g id="icon"><circle class="cls-1" cx="39.27" cy="48.78" r="1.5"/><circle class="cls-1" cx="48.59" cy="48.78" r="1.5"/><circle class="cls-1" cx="57.9" cy="48.78" r="1.5"/><polygon class="cls-2" points="57.21 35.32 30.31 35.32 30.31 62.23 57.21 62.23 84.12 35.32 57.21 35.32"/><path class="cls-3" d="M52.22,27.9V23.6l-6.42-.92A19.41,19.41,0,0,0,43,15.83l3.9-5.2L42.59,6.37l-5.2,3.9a19.41,19.41,0,0,0-6.85-2.85L29.62,1h-6l-.92,6.42a19.41,19.41,0,0,0-6.85,2.85l-5.2-3.9L6.37,10.63l3.9,5.2a19.41,19.41,0,0,0-2.85,6.85L1,23.6v6l6.42.92a19.41,19.41,0,0,0,2.85,6.85l-3.9,5.2,4.26,4.26,5.2-3.9a19.41,19.41,0,0,0,6.85,2.85l.92,6.42m.16-17a9,9,0,1,1,11.89-8.58,9.36,9.36,0,0,1-.3,2.33"/></g></g></svg>